<svg width="20" height="20" viewBox="0 0 20 20" fill="none" xmlns="http://www.w3.org/2000/svg">
<g clip-path="url(#clip0_1987_25944)">
<path d="M19.7649 4.79366C19.5949 4.60935 19.353 4.50366 19.1013 4.50366H18.8342C18.1339 4.50366 17.5596 5.02602 17.4983 5.71873L17.2094 8.98753C17.1838 9.27721 16.9436 9.49569 16.6507 9.49569H14.1497C13.3483 9.49569 12.6963 10.1431 12.6963 10.9388V11.0822C12.6963 11.5629 13.0902 11.954 13.5743 11.954H14.1104L13.5825 13.6658C13.5821 13.6671 13.5817 13.6683 13.5813 13.6696L13.1778 14.9781C13.1304 15.1317 13.2175 15.2943 13.3721 15.3414C13.4007 15.3501 13.4296 15.3542 13.458 15.3542C13.5834 15.3542 13.6994 15.2737 13.738 15.1484L14.0784 14.0449H18.0967L18.437 15.1484C18.4756 15.2737 18.5916 15.3542 18.717 15.3542C18.7455 15.3542 18.7744 15.3501 18.8029 15.3414C18.9576 15.2943 19.0446 15.1317 18.9972 14.9781L18.0396 11.8727C18.2077 11.8254 18.3701 11.7582 18.5224 11.6715C18.6628 11.5916 18.7114 11.4138 18.6309 11.2745C18.5504 11.1351 18.3714 11.0869 18.231 11.1668C17.9949 11.3012 17.7256 11.3722 17.4521 11.3722H14.5067C14.5057 11.3722 14.5048 11.3722 14.5038 11.3722H13.5744C13.4134 11.3722 13.2823 11.2422 13.2823 11.0822V10.9388C13.2823 10.4639 13.6714 10.0775 14.1498 10.0775H16.6508C17.2497 10.0775 17.7408 9.63078 17.7932 9.03841L18.0821 5.76958C18.1165 5.37955 18.4399 5.0854 18.8342 5.0854H19.1013C19.1905 5.0854 19.2728 5.12136 19.333 5.18663C19.3932 5.25191 19.4221 5.33642 19.4143 5.42462L19.0142 9.9513C19.0044 10.0629 18.9824 10.1734 18.9491 10.2796C18.901 10.433 18.9872 10.5961 19.1417 10.6438C19.2964 10.6916 19.4604 10.6059 19.5086 10.4526C19.5544 10.3067 19.5844 10.1552 19.5979 10.0022L19.998 5.47547C20.0199 5.22651 19.935 4.97797 19.7649 4.79366ZM14.7231 11.954H17.4518L17.9172 13.4632H14.2577L14.7231 11.954Z" fill="#696969"/>
<path d="M5.85261 9.49667H3.3516C3.05867 9.49667 2.81852 9.27823 2.79289 8.9885L2.50399 5.71971C2.44278 5.027 1.86848 4.50464 1.16813 4.50464H0.90106C0.649342 4.50464 0.407429 4.61033 0.23739 4.79464C0.0673512 4.97895 -0.0175705 5.22748 0.00438254 5.47652L0.40446 10.0032C0.451686 10.5374 0.696998 11.0311 1.09524 11.3933C1.34543 11.6209 1.6425 11.7842 1.96266 11.8741L1.00508 14.9791C0.957701 15.1327 1.04473 15.2954 1.19942 15.3424C1.22801 15.3511 1.25692 15.3552 1.28532 15.3552C1.41067 15.3552 1.52672 15.2747 1.56532 15.1494L1.90563 14.046H5.92398L6.26429 15.1494C6.30289 15.2747 6.4189 15.3552 6.54429 15.3552C6.57273 15.3552 6.60164 15.3511 6.63019 15.3424C6.78488 15.2954 6.87191 15.1327 6.82453 14.9791L6.42101 13.6706C6.42062 13.6694 6.42023 13.6681 6.41984 13.6668L5.89195 11.955H6.428C6.91218 11.955 7.30601 11.5639 7.30601 11.0832V10.9398C7.30601 10.144 6.65402 9.49667 5.85261 9.49667ZM2.08504 13.4641L2.55043 11.955H5.27914L5.74453 13.4641H2.08504ZM6.72007 11.0831C6.72007 11.2431 6.58906 11.3732 6.428 11.3732H5.49879C5.49761 11.3732 5.49648 11.3732 5.49531 11.3732H2.55028C2.48762 11.3732 2.42598 11.3692 2.36528 11.3622C2.36524 11.3622 2.36516 11.3622 2.36508 11.3622C1.63211 11.2781 1.05422 10.7003 0.988131 9.95228L0.588053 5.42564C0.580241 5.3374 0.609147 5.25289 0.669381 5.18761C0.729576 5.12233 0.811842 5.08638 0.901021 5.08638H1.16809C1.56243 5.08638 1.88579 5.38049 1.92024 5.77055L2.20914 9.03935V9.03931C2.26149 9.63168 2.75262 10.0784 3.35156 10.0784H5.85257C6.33089 10.0784 6.72003 10.4648 6.72003 10.9397V11.0831H6.72007Z" fill="#696969"/>
<path d="M12.2253 14.3946C12.1044 13.9332 11.6847 13.6109 11.2045 13.6109H11.0232V8.31541H14.6307C14.8385 8.31541 15.033 8.22369 15.1644 8.06377C15.2957 7.90382 15.3471 7.69617 15.3052 7.49402C15.1792 6.88571 14.6338 6.44421 14.0083 6.44421H7.91742C7.75558 6.44421 7.62445 6.57446 7.62445 6.7351C7.62445 6.89575 7.75558 7.02599 7.91742 7.02599H14.0083C14.357 7.02599 14.661 7.27213 14.7312 7.61119C14.7398 7.65246 14.7217 7.68213 14.7103 7.69617C14.6987 7.71017 14.6731 7.73367 14.6307 7.73367H5.37082C5.32844 7.73367 5.30282 7.71017 5.29129 7.69617C5.27981 7.68217 5.26176 7.65246 5.27032 7.61123C5.34055 7.27213 5.64453 7.02599 5.99321 7.02599H6.54336C6.7052 7.02599 6.83633 6.89575 6.83633 6.7351C6.83633 6.57446 6.7052 6.44421 6.54336 6.44421H5.99321C5.36774 6.44421 4.82235 6.88571 4.69637 7.49406C4.65454 7.69621 4.70586 7.90386 4.83719 8.06377C4.96852 8.22369 5.16301 8.31541 5.37082 8.31541H8.97843V13.611H8.79711C8.31691 13.611 7.89715 13.9332 7.77625 14.3946L7.70746 14.6571C7.66344 14.8252 7.69953 15.0004 7.80652 15.1379C7.91355 15.2753 8.07527 15.3541 8.25019 15.3541H11.7514C11.9263 15.3541 12.088 15.2753 12.195 15.1379C12.302 15.0005 12.3381 14.8252 12.2941 14.6571L12.2253 14.3946ZM9.56437 8.31541H10.4373V13.611H9.56437V8.31541ZM8.28269 14.7723L8.34332 14.5411C8.39703 14.336 8.58363 14.1928 8.79707 14.1928H11.2044C11.4179 14.1928 11.6045 14.336 11.6582 14.5411L11.7188 14.7723H8.28269Z" fill="#696969"/>
</g>
<defs>
<clipPath id="clip0_1987_25944">
<rect width="20" height="19.8582" fill="white"/>
</clipPath>
</defs>
</svg>
