<svg width="16" height="16" viewBox="0 0 16 16" fill="none" xmlns="http://www.w3.org/2000/svg">
<g clip-path="url(#clip0_1987_25904)">
<path d="M2.24949 2.49982C1.97338 2.49982 1.74951 2.72365 1.74951 2.99979V4.49972C1.74951 4.77586 1.97338 4.99969 2.24949 4.99969C2.5256 4.99969 2.74946 4.77586 2.74946 4.49972V2.99979C2.74946 2.72365 2.5256 2.49982 2.24949 2.49982Z" fill="#696969"/>
<path d="M2.24949 8.49951C1.97338 8.49951 1.74951 8.72334 1.74951 8.99949V10.4994C1.74951 10.7756 1.97338 10.9994 2.24949 10.9994C2.5256 10.9994 2.74946 10.7756 2.74946 10.4994V8.99949C2.74946 8.72334 2.5256 8.49951 2.24949 8.49951Z" fill="#696969"/>
<path d="M11.4594 13.7044C11.8046 13.7044 12.0844 13.4246 12.0844 13.0794C12.0844 12.7343 11.8046 12.4545 11.4594 12.4545C11.1143 12.4545 10.8345 12.7343 10.8345 13.0794C10.8345 13.4246 11.1143 13.7044 11.4594 13.7044Z" fill="#696969"/>
<path d="M9.95749 11.5767C9.76222 11.772 9.76222 12.0885 9.95749 12.2838C10.1528 12.4791 10.4693 12.479 10.6645 12.2838C11.1032 11.8452 11.8169 11.8452 12.2555 12.2838C12.3531 12.3815 12.4811 12.4303 12.609 12.4303C13.0505 12.4303 13.2784 11.8926 12.9625 11.5767C12.1341 10.7483 10.786 10.7483 9.95749 11.5767Z" fill="#696969"/>
<path d="M14.0227 10.516C12.6062 9.09953 10.3132 9.09925 8.89643 10.516C8.70119 10.7113 8.70119 11.0279 8.89643 11.2231C9.09167 11.4183 9.40822 11.4183 9.60349 11.2231C10.6292 10.1973 12.2897 10.1972 13.3156 11.2231C13.5108 11.4183 13.8274 11.4184 14.0226 11.2231C14.2179 11.0279 14.2179 10.7113 14.0227 10.516Z" fill="#696969"/>
<path d="M9.50001 7.469C9.50001 7.24719 9.50001 1.47139 9.50001 1.24994C9.50001 0.560722 8.93928 0 8.25007 0H1.25042C0.56121 0 0.000488281 0.560722 0.000488281 1.24994V15.4992C0.000488281 15.7754 0.224352 15.9992 0.500463 15.9992H9.00003C9.26614 15.9992 9.48307 15.7911 9.49851 15.5289C12.5311 17.0143 15.9997 14.8003 15.9997 11.4994C15.9997 8.15646 12.4688 5.99001 9.50001 7.469ZM1.00044 1.24994C1.00044 1.1121 1.11259 0.999949 1.25042 0.999949H8.25007C8.38791 0.999949 8.50006 1.1121 8.50006 1.24994V6.49967H1.00044V1.24994ZM8.50006 14.9992H1.00044V7.49962H8.50006V8.14802C6.50053 9.9404 6.49978 13.0577 8.50006 14.8508V14.9992ZM11.4999 14.9992C9.57 14.9992 8.00008 13.4293 8.00008 11.4994C8.00008 9.56951 9.57 7.99959 11.4999 7.99959C13.4298 7.99959 14.9997 9.56951 14.9997 11.4994C14.9997 13.4293 13.4298 14.9992 11.4999 14.9992Z" fill="#696969"/>
</g>
<defs>
<clipPath id="clip0_1987_25904">
<rect width="16" height="16" fill="white"/>
</clipPath>
</defs>
</svg>
