<svg width="16" height="16" viewBox="0 0 16 16" fill="none" xmlns="http://www.w3.org/2000/svg">
<g clip-path="url(#clip0_1987_25927)">
<path d="M0.596492 11.4323C6.67702 9.70383 8.89952 13.1968 15.649 11.435C15.8995 11.3696 16.0495 11.1135 15.9841 10.863C15.9188 10.6126 15.6627 10.4625 15.4122 10.5279C14.0871 10.8738 12.9386 11.0018 11.8985 11.0032L10.5395 8.81289C11.3428 9.81104 12.8358 9.86858 13.7105 8.93839C14.0951 8.52945 14.2974 7.9952 14.2802 7.43408C14.2226 5.55301 11.9178 4.70898 10.6486 6.05864C10.0371 6.70883 9.92621 7.63329 10.2705 8.37923L8.41096 5.38223L11.1704 4.58595C12.0274 4.33867 12.4324 3.35773 11.997 2.57751C11.6808 2.01101 11.0246 1.74095 10.4014 1.92083L6.22377 3.12636C5.14062 3.43895 4.65555 4.69808 5.2503 5.6567L6.51299 7.69179C5.60277 8.25679 2.7158 10.047 2.68515 10.0683C1.96049 10.1449 1.18443 10.2905 0.340211 10.5305C0.0912107 10.6013 -0.0532893 10.8606 0.0174919 11.1096C0.0882419 11.3587 0.347586 11.5031 0.596492 11.4323ZM11.3315 6.70095C11.7727 6.23176 12.5093 6.21048 12.9771 6.65045C13.4458 7.09123 13.4685 7.82736 13.0276 8.29614C12.5869 8.76476 11.8507 8.78748 11.382 8.34664C10.9132 7.90583 10.8906 7.1697 11.3315 6.70095ZM7.55668 7.59589L6.0469 5.16248C5.78024 4.7327 5.99733 4.16748 6.48365 4.02714L10.6612 2.82161C10.8633 2.76323 11.0758 2.85083 11.1783 3.03439C11.3197 3.28773 11.1876 3.60523 10.9105 3.6852L7.55637 4.65311C7.25783 4.73926 7.12449 5.08708 7.28802 5.35061L10.7657 10.9557C8.57861 10.7721 6.80152 10.1125 4.55133 10.0123L7.40552 8.24129C7.62549 8.10483 7.69318 7.81586 7.55668 7.59589Z" fill="#696969"/>
<path d="M15.4123 12.7153C8.95468 14.401 6.68871 10.9133 0.340211 12.718C0.0912107 12.7888 -0.0532893 13.048 0.0174919 13.2971C0.0882732 13.5461 0.347617 13.6906 0.596554 13.6198C6.67709 11.8913 8.89959 15.3843 15.6491 13.6224C15.8996 13.5571 16.0496 13.301 15.9842 13.0505C15.9188 12.8 15.6627 12.65 15.4123 12.7153Z" fill="#696969"/>
</g>
<defs>
<clipPath id="clip0_1987_25927">
<rect width="16" height="16" fill="white"/>
</clipPath>
</defs>
</svg>
