<svg width="24" height="23" viewBox="0 0 24 23" fill="none" xmlns="http://www.w3.org/2000/svg">
<g clip-path="url(#clip0_1987_25959)" filter="url(#filter0_d_1987_25959)">
<path d="M11.9972 11.3219C11.2325 11.3219 10.6104 11.942 10.6104 12.7038C10.6104 13.4659 11.2325 14.0862 11.9972 14.0862C12.7622 14.0862 13.3843 13.4659 13.3843 12.7038C13.3843 11.942 12.762 11.3219 11.9972 11.3219Z" fill="#696969"/>
<path d="M15.3809 9.43907C14.478 8.53668 13.2762 8.03949 11.9972 8.03949C10.7232 8.03949 9.52464 8.5334 8.62199 9.43011C8.25743 9.79291 8.2568 10.384 8.62048 10.7474C8.79715 10.9243 9.03237 11.0215 9.28273 11.0215C9.53196 11.0215 9.76629 10.9248 9.94271 10.7494C10.492 10.2035 11.2216 9.90282 11.9972 9.90282C12.7757 9.90282 13.5073 10.2054 14.057 10.7546C14.2337 10.931 14.4688 11.0284 14.7189 11.0284C14.9684 11.0284 15.2026 10.9318 15.3791 10.7564C15.7442 10.3935 15.7448 9.80275 15.3809 9.43907Z" fill="#696969"/>
<path d="M19.7269 5.10666C17.6627 3.04752 14.9171 1.91382 11.9966 1.91382C9.07993 1.91382 6.33718 3.04487 4.27358 5.09912C3.90902 5.46192 3.90876 6.053 4.27308 6.41643C4.44962 6.59246 4.68446 6.68925 4.93432 6.68925C5.18405 6.68925 5.41864 6.59284 5.59518 6.41693C7.30569 4.71437 9.57902 3.77652 11.9966 3.77652C14.4177 3.77652 16.6933 4.71626 18.4042 6.42337C18.5807 6.59953 18.8159 6.6967 19.0657 6.6967C19.3153 6.6967 19.5498 6.59978 19.7263 6.42413C20.091 6.06104 20.0913 5.46975 19.7269 5.10666Z" fill="#696969"/>
<path d="M17.4993 7.32722C16.03 5.86126 14.076 5.05402 11.9974 5.05402C9.92261 5.05402 7.97157 5.85873 6.50347 7.31952C6.32668 7.4953 6.22938 7.72913 6.229 7.97811C6.229 8.22683 6.32592 8.46091 6.50246 8.63695C6.679 8.81311 6.91397 8.91028 7.16382 8.91028C7.4133 8.91028 7.64789 8.81336 7.82469 8.63796C8.93996 7.52836 10.4219 6.9171 11.9974 6.9171C13.5762 6.9171 15.0602 7.53051 16.1762 8.64389C16.353 8.82031 16.5879 8.91747 16.8379 8.91747C17.0875 8.91747 17.3222 8.82056 17.4985 8.6449C17.675 8.46912 17.7726 8.23528 17.7727 7.98631C17.7729 7.73734 17.6758 7.5035 17.4993 7.32722Z" fill="#696969"/>
</g>
<defs>
<filter id="filter0_d_1987_25959" x="0" y="0" width="24" height="24" filterUnits="userSpaceOnUse" color-interpolation-filters="sRGB">
<feFlood flood-opacity="0" result="BackgroundImageFix"/>
<feColorMatrix in="SourceAlpha" type="matrix" values="0 0 0 0 0 0 0 0 0 0 0 0 0 0 0 0 0 0 127 0" result="hardAlpha"/>
<feOffset dy="4"/>
<feGaussianBlur stdDeviation="2"/>
<feComposite in2="hardAlpha" operator="out"/>
<feColorMatrix type="matrix" values="0 0 0 0 0 0 0 0 0 0 0 0 0 0 0 0 0 0 0.25 0"/>
<feBlend mode="normal" in2="BackgroundImageFix" result="effect1_dropShadow_1987_25959"/>
<feBlend mode="normal" in="SourceGraphic" in2="effect1_dropShadow_1987_25959" result="shape"/>
</filter>
<clipPath id="clip0_1987_25959">
<rect width="16" height="16" fill="white" transform="translate(4)"/>
</clipPath>
</defs>
</svg>
